Run_30001
nRows=4
nColumns=164

# SIMM Motion File Header:
name Run_30001
datacolumns 164
datarows 4
otherdata 1
range 0.12500000 0.15000000
endheader
time	pelvis_tilt	pelvis_list	pelvis_rotation	pelvis_tx	pelvis_ty	pelvis_tz	hip_flexion_r	hip_adduction_r	hip_rotation_r	knee_angle_r	ankle_angle_r	hip_flexion_l	hip_adduction_l	hip_rotation_l	knee_angle_l	ankle_angle_l	lumbar_extension	lumbar_bending	lumbar_rotation	arm_flex_r	arm_add_r	arm_rot_r	elbow_flex_r	pro_sup_r	arm_flex_l	arm_add_l	arm_rot_l	elbow_flex_l	pro_sup_l	subtalar_angle_r	mtp_angle_r	subtalar_angle_l	mtp_angle_l	wrist_flex_r	wrist_dev_r	wrist_flex_l	wrist_dev_l	LASI_tx	LASI_ty	LASI_tz	RASI_tx	RASI_ty	RASI_tz	LPSI_tx	LPSI_ty	LPSI_tz	RPSI_tx	RPSI_ty	RPSI_tz	RTH1_tx	RTH1_ty	RTH1_tz	RTH2_tx	RTH2_ty	RTH2_tz	RTH3_tx	RTH3_ty	RTH3_tz	LTH1_tx	LTH1_ty	LTH1_tz	LTH2_tx	LTH2_ty	LTH2_tz	LTH3_tx	LTH3_ty	LTH3_tz	RTB1_tx	RTB1_ty	RTB1_tz	RTB2_tx	RTB2_ty	RTB2_tz	RTB3_tx	RTB3_ty	RTB3_tz	LTB1_tx	LTB1_ty	LTB1_tz	LTB2_tx	LTB2_ty	LTB2_tz	LTB3_tx	LTB3_ty	LTB3_tz	RCAL_tx	RCAL_ty	RCAL_tz	RTOE_tx	RTOE_ty	RTOE_tz	RMT5_tx	RMT5_ty	RMT5_tz	LCAL_tx	LCAL_ty	LCAL_tz	LTOE_tx	LTOE_ty	LTOE_tz	LMT5_tx	LMT5_ty	LMT5_tz	LACR_tx	LACR_ty	LACR_tz	RACR_tx	RACR_ty	RACR_tz	CLAV_tx	CLAV_ty	CLAV_tz	C7_tx	C7_ty	C7_tz	RUA1_tx	RUA1_ty	RUA1_tz	RUA2_tx	RUA2_ty	RUA2_tz	RUA3_tx	RUA3_ty	RUA3_tz	RLEL_tx	RLEL_ty	RLEL_tz	RMEL_tx	RMEL_ty	RMEL_tz	LUA1_tx	LUA1_ty	LUA1_tz	LUA2_tx	LUA2_ty	LUA2_tz	LUA3_tx	LUA3_ty	LUA3_tz	LLEL_tx	LLEL_ty	LLEL_tz	LMEL_tx	LMEL_ty	LMEL_tz	RFAsuperior_tx	RFAsuperior_ty	RFAsuperior_tz	RFAradius_tx	RFAradius_ty	RFAradius_tz	RFAulna_tx	RFAulna_ty	RFAulna_tz	LFAsuperior_tx	LFAsuperior_ty	LFAsuperior_tz	LFAradius_tx	LFAradius_ty	LFAradius_tz	LFAulna_tx	LFAulna_ty	LFAulna_tz
      0.12500000	     -7.11751638	     -1.63727404	     -4.98242060	      1.06865866	      1.03478969	     -0.32753712	     31.24303491	      6.36473576	     -0.27376068	    -14.52358901	    -16.23897588	     -7.53020241	      5.31588860	      3.26099185	    -44.67771815	    -28.33768922	     -1.24309348	      3.43721245	     -8.23145915	    -49.54416824	     -9.52102251	    -16.31939708	     78.84932995	     63.84478800	    -25.66077797	    -21.04497130	      7.19042314	    137.66793299	     82.20404813	      0.00000000	      0.00000000	      0.00000000	      0.00000000	      0.00000000	      0.00000000	      0.00000000	      0.00000000	      1.08405500	      1.03984649	     -0.43697926	      1.06143990	      1.05351236	     -0.20925039	      0.91784913	      1.09454007	     -0.39569982	      0.90409723	      1.09258222	     -0.29694070	      1.02461591	      0.89417875	     -0.15083670	      1.14070662	      0.76847782	     -0.17434679	      1.11378480	      0.66911971	     -0.19464160	      0.98442482	      0.87395751	     -0.49957931	      1.02044966	      0.75900844	     -0.46021682	      0.91183113	      0.66128713	     -0.45575796	      1.24111728	      0.47135034	     -0.24896878	      1.19732740	      0.40105083	     -0.19585722	      1.26599374	      0.29361939	     -0.25844553	      0.80737480	      0.44487582	     -0.39122796	      0.70892670	      0.42351455	     -0.44876962	      0.63410608	      0.35236365	     -0.38629938	      1.18001292	      0.14025234	     -0.30638355	      1.39224819	      0.14164242	     -0.30154139	      1.36987705	      0.08697770	     -0.21337991	      0.49163917	      0.40092929	     -0.40342954	      0.51552380	      0.21381374	     -0.31626922	      0.48036407	      0.18720658	     -0.41580363	      1.08258350	      1.53533470	     -0.49834735	      1.00911772	      1.51944612	     -0.14802311	      1.10675784	      1.47655419	     -0.28261831	      1.00864297	      1.56071303	     -0.33643401	      0.95040779	      1.46986351	     -0.10916973	      0.92149092	      1.38541945	     -0.12548608	      0.84572843	      1.42463348	     -0.14840949	      0.76421104	      1.33919994	     -0.13784411	      0.77675437	      1.33497429	     -0.20416959	      1.06461012	      1.46587785	     -0.55988391	      0.99682521	      1.42069761	     -0.56173220	      1.05751510	      1.36668888	     -0.59508406	      0.98955720	      1.26775591	     -0.64185619	      0.93313947	      1.26634151	     -0.59292224	      0.81177671	      1.26746599	     -0.09821484	      0.88567855	      1.09552878	     -0.08417173	      0.82825336	      1.07472437	     -0.11232485	      1.06652854	      1.27576740	     -0.60506190	      1.16635809	      1.32782104	     -0.45171037	      1.17877584	      1.26153118	     -0.44508161
      0.13333300	     -6.13489278	     -1.85231589	     -5.28966345	      1.06892649	      1.03273001	     -0.32725733	     30.18217069	      6.80568229	      0.25845661	    -15.73501830	    -16.00311443	     -6.94521661	      5.23794587	      2.40928562	    -49.44731947	    -27.84677587	     -2.37247958	      3.84197236	     -7.41104416	    -49.07272617	     -9.43728923	    -16.11525335	     78.75781427	     63.45873606	    -26.12921581	    -20.78040196	      7.39244281	    136.04638618	     82.80755447	      0.00000000	      0.00000000	      0.00000000	      0.00000000	      0.00000000	      0.00000000	      0.00000000	      0.00000000	      1.08463161	      1.03792967	     -0.43699169	      1.06100860	      1.05102445	     -0.20940747	      0.91742244	      1.09027776	     -0.39622224	      0.90354833	      1.08757207	     -0.29762934	      1.02534022	      0.89161138	     -0.15008648	      1.14167368	      0.76704706	     -0.17398342	      1.11429985	      0.66680349	     -0.19551754	      0.99029328	      0.86955172	     -0.49893130	      1.02833300	      0.75547403	     -0.45761161	      0.92225799	      0.65539454	     -0.45635628	      1.23877329	      0.46674715	     -0.25159828	      1.19462049	      0.39717622	     -0.19773364	      1.25995771	      0.28834157	     -0.26102056	      0.81385968	      0.44261370	     -0.39143998	      0.71411118	      0.42756857	     -0.44926340	      0.63536743	      0.36021529	     -0.38766489	      1.17056750	      0.13655673	     -0.30776295	      1.38293934	      0.13485501	     -0.30444979	      1.36040589	      0.07957672	     -0.21642027	      0.49539860	      0.41645719	     -0.40476536	      0.51093441	      0.22803303	     -0.31845722	      0.47361789	      0.20379987	     -0.41790303	      1.08141821	      1.53203865	     -0.49702044	      1.00979981	      1.51487118	     -0.14620318	      1.10662791	      1.47281398	     -0.28172681	      1.00840207	      1.55753116	     -0.33445244	      0.95141718	      1.46419742	     -0.10661744	      0.92281362	      1.37957701	     -0.12403783	      0.84719583	      1.41857137	     -0.14580009	      0.76594607	      1.33274224	     -0.13527189	      0.77813073	      1.32890853	     -0.20189808	      1.06207890	      1.46333769	     -0.55870916	      0.99372919	      1.41881526	     -0.55965490	      1.05368975	      1.36440059	     -0.59427748	      0.98445523	      1.26651952	     -0.64088194	      0.92849806	      1.26584419	     -0.59097811	      0.81465302	      1.26095377	     -0.09682073	      0.88923213	      1.08934711	     -0.08433440	      0.83181450	      1.06826994	     -0.11261452	      1.06171236	      1.27159738	     -0.60443481	      1.16453580	      1.31712106	     -0.45038510	      1.17498032	      1.25034270	     -0.44599026
      0.14166700	     -5.17226553	     -2.15046247	     -5.62117621	      1.06910605	      1.03021007	     -0.32688499	     29.09591810	      7.35848465	      1.10570121	    -17.01540986	    -16.12624293	     -6.37404570	      4.96568477	      1.41529986	    -54.07128042	    -27.59402027	     -3.49935210	      4.32304900	     -6.55222660	    -48.54082946	     -9.40737565	    -15.86857584	     78.62848923	     63.11647092	    -26.63920081	    -20.49871705	      7.54304070	    134.34935788	     83.34765954	      0.00000000	      0.00000000	      0.00000000	      0.00000000	      0.00000000	      0.00000000	      0.00000000	      0.00000000	      1.08513686	      1.03546644	     -0.43696807	      1.06048492	      1.04820450	     -0.20941197	      0.91705134	      1.08537886	     -0.39676857	      0.90303100	      1.08221803	     -0.29840704	      1.02614047	      0.88877302	     -0.14963055	      1.14289075	      0.76550791	     -0.17381870	      1.11487600	      0.66426955	     -0.19635105	      0.99591755	      0.86486874	     -0.49850738	      1.03593181	      0.75175402	     -0.45588422	      0.93224638	      0.64941174	     -0.45680950	      1.23612357	      0.46153979	     -0.25414006	      1.19146403	      0.39306258	     -0.19927738	      1.25336869	      0.28257105	     -0.26320228	      0.82093519	      0.44013292	     -0.39182406	      0.72002074	      0.43144774	     -0.44985259	      0.63769980	      0.36777637	     -0.38903558	      1.15995406	      0.13292218	     -0.30813689	      1.37197338	      0.12665344	     -0.30855135	      1.34975528	      0.07114855	     -0.21980574	      0.50054894	      0.43166983	     -0.40573484	      0.50737459	      0.24191303	     -0.32100148	      0.46811041	      0.22045730	     -0.42030561	      1.08024552	      1.52828916	     -0.49568978	      1.01049247	      1.50981343	     -0.14438183	      1.10650340	      1.46858344	     -0.28086964	      1.00813559	      1.55392861	     -0.33253182	      0.95245790	      1.45800712	     -0.10414341	      0.92433034	      1.37316177	     -0.12243454	      0.84860302	      1.41178816	     -0.14305312	      0.76786462	      1.32551141	     -0.13244644	      0.77952759	      1.32215884	     -0.19940706	      1.05952762	      1.46037950	     -0.55746341	      0.99058154	      1.41651909	     -0.55750550	      1.04968743	      1.36167620	     -0.59341477	      0.97908035	      1.26492487	     -0.63982327	      0.92364362	      1.26495606	     -0.58907148	      0.81772243	      1.25367408	     -0.09530313	      0.89313223	      1.08244457	     -0.08446959	      0.83560578	      1.06119249	     -0.11279608	      1.05658373	      1.26703581	     -0.60379278	      1.16252561	      1.30548894	     -0.44935304	      1.17081952	      1.23836882	     -0.44726091
      0.15000000	     -4.24030579	     -2.53045309	     -5.97131535	      1.06912633	      1.02698263	     -0.32642299	     28.00564211	      8.03310129	      2.35160112	    -18.49678372	    -16.55621126	     -5.72029387	      4.44986257	      0.22098851	    -58.67632644	    -27.43127751	     -4.61809713	      4.87602544	     -5.65976699	    -47.88493058	     -9.45749243	    -15.53492004	     78.41813349	     62.82318972	    -27.22151834	    -20.18807467	      7.59866786	    132.52417563	     83.85051607	      0.00000000	      0.00000000	      0.00000000	      0.00000000	      0.00000000	      0.00000000	      0.00000000	      0.00000000	      1.08555318	      1.03208884	     -0.43693099	      1.05984114	      1.04481492	     -0.20917228	      0.91673750	      1.07941505	     -0.39736581	      0.90257546	      1.07629414	     -0.29924173	      1.02712051	      0.88548900	     -0.14970468	      1.14443970	      0.76363634	     -0.17405928	      1.11545998	      0.66129956	     -0.19714325	      1.00112871	      0.85970946	     -0.49840534	      1.04296939	      0.74770797	     -0.45554921	      0.94150445	      0.64322004	     -0.45704993	      1.23299021	      0.45536610	     -0.25650652	      1.18768064	      0.38847093	     -0.20028234	      1.24573242	      0.27596999	     -0.26487281	      0.82893516	      0.43726984	     -0.39246699	      0.72710068	      0.43496872	     -0.45055794	      0.64172192	      0.37485304	     -0.39041030	      1.14723280	      0.12935598	     -0.30723560	      1.35823166	      0.11641540	     -0.31409105	      1.33691080	      0.06178277	     -0.22331336	      0.50787603	      0.44628943	     -0.40613437	      0.50557195	      0.25521189	     -0.32406103	      0.46469299	      0.23714673	     -0.42316799	      1.07904647	      1.52379015	     -0.49436839	      1.01119639	      1.50396295	     -0.14256844	      1.10638061	      1.46356169	     -0.28005554	      1.00783933	      1.54962793	     -0.33070464	      0.95353874	      1.45096426	     -0.10180833	      0.92609394	      1.36583486	     -0.12060210	      0.84990526	      1.40384579	     -0.14007890	      0.77007662	      1.31702755	     -0.12921482	      0.78095988	      1.31427080	     -0.19657290	      1.05693571	      1.45671904	     -0.55613452	      0.98735712	      1.41355587	     -0.55528115	      1.04541930	      1.35822992	     -0.59244158	      0.97328024	      1.26275243	     -0.63863818	      0.91846780	      1.26344036	     -0.58715791	      0.82108336	      1.24515133	     -0.09355384	      0.89759382	      1.07438056	     -0.08457455	      0.83987657	      1.05306645	     -0.11283286	      1.05095462	      1.26183416	     -0.60310308	      1.16020609	      1.29238091	     -0.44880747	      1.16605845	      1.22515778	     -0.44920507
